<mxfile host="app.diagrams.net" modified="2024-05-17T12:13:32.914Z" agent="Mozilla/5.0 (Windows NT 10.0; Win64; x64) AppleWebKit/537.36 (KHTML, like Gecko) Chrome/125.0.0.0 Safari/537.36" version="21.6.8" etag="QCkAXjPkr8Ywkwak5EeB" type="github">
  <diagram name="PÃ¡gina-1" id="C9mk1nT3-ZpTGrMv1V7_">
    <mxGraphModel>
      <root>
        <mxCell id="0" />
        <mxCell id="1" parent="0" />
      </root>
    </mxGraphModel>
  </diagram>
</mxfile>
